# xmcd
#
# Track frame offsets:
#	150
#	13805
#	30565
#	45170
#	62310
#	75595
#	88990
#	105370
#	122720
#	135325
#	149705
#	162210
#
# Disc length: 2357 seconds
#
# Revision: 1
# Processed by: cddbd v1.5.2PL0 Copyright (c) Steve Scherf et al.
# Submitted via: EasyCDDAExtractor 11.0.0.1
#
DISCID=8f09330c
DTITLE=Fábio and Fernando
DYEAR=1900
DGENRE=Sertanejo
TTITLE0=Vai Chover Saudades
TTITLE1=Um Sonho Vale Muito Mais Que Qualquer Diamante
TTITLE2=Marcas de Baton
TTITLE3=Ela Judia de Mim
TTITLE4=Falando com a Lua
TTITLE5=Cartas de Amor
TTITLE6=Se Entregue Para Mim
TTITLE7=Faz Meu Coração Sonhar
TTITLE8=Não Suportei a Solidão
TTITLE9=Quando Acordei Chorava
TTITLE10=Sentindo a Falta Dela
TTITLE11=Raiva e Paixão
EXTD=
EXTT0=
EXTT1=
EXTT2=
EXTT3=
EXTT4=
EXTT5=
EXTT6=
EXTT7=
EXTT8=
EXTT9=
EXTT10=
EXTT11=
PLAYORDER=
